<?xml version="1.0" encoding="UTF-8" standalone="no"?>
<svg width="32px" height="32px" viewBox="0 0 32 32" version="1.1" xmlns="http://www.w3.org/2000/svg" xmlns:xlink="http://www.w3.org/1999/xlink">
    <!-- Generator: Sketch 3.8.3 (29802) - http://www.bohemiancoding.com/sketch -->
    <title>Group 2</title>
    <desc>Created with Sketch.</desc>
    <defs></defs>
    <g id="homepage" stroke="none" stroke-width="1" fill="none" fill-rule="evenodd">
        <g id="desktop-details" transform="translate(-100.000000, -110.000000)" fill="#F96161">
            <g id="Group-4" transform="translate(100.000000, 110.000000)">
                <g id="Group-2">
                    <path d="M16,0 C7.16457143,0 0,7.164 0,16 C0,24.836 7.16457143,32 16,32 C24.836,32 32,24.836 32,16 C32,7.164 24.836,0 16,0 L16,0 Z M16,30.8571429 C7.80771429,30.8571429 1.14285714,24.1922857 1.14285714,16 C1.14285714,7.80771429 7.80771429,1.14285714 16,1.14285714 C24.1922857,1.14285714 30.8571429,7.80771429 30.8571429,16 C30.8571429,24.1922857 24.1922857,30.8571429 16,30.8571429 L16,30.8571429 Z" id="Shape"></path>
                    <polygon id="Shape" points="16.8082857 9.95114286 15.1917143 8.33457143 7.52657143 16 15.1917143 23.6654286 16.8082857 22.0488571 11.902 17.1428571 25.1428571 17.1428571 25.1428571 14.8571429 11.902 14.8571429"></polygon>
                </g>
            </g>
        </g>
    </g>
</svg>