<?xml version="1.0" encoding="UTF-8" standalone="no"?>
<svg width="34px" height="34px" viewBox="0 0 34 34" version="1.1" xmlns="http://www.w3.org/2000/svg" xmlns:xlink="http://www.w3.org/1999/xlink">
    <!-- Generator: Sketch 3.8.3 (29802) - http://www.bohemiancoding.com/sketch -->
    <title>Fill 1</title>
    <desc>Created with Sketch.</desc>
    <defs></defs>
    <g id="homepage" stroke="none" stroke-width="1" fill="none" fill-rule="evenodd">
        <g id="desktop-details" transform="translate(-960.000000, -409.000000)" stroke="#F96161" fill="#F96161">
            <g id="Group-8" transform="translate(961.000000, 170.000000)">
                <g id="Group-5">
                    <path d="M12.7956479,270.728795 L19.1972262,270.728795 L19.1972262,261.762299 L12.7956479,261.762299 L12.7956479,270.728795 Z M16.0341143,241.599189 C11.4438096,246.190877 6.84827061,250.787897 2.26744699,255.370103 L2.49153531,255.370103 C3.51193222,255.370103 4.53223036,255.369906 5.55262727,255.370202 C6.17057379,255.3704 6.37599632,255.577995 6.37599632,256.201472 C6.37609508,260.933005 6.37599632,265.664537 6.37599632,270.395971 L6.37599632,270.728203 L11.5251885,270.728203 L11.5251885,270.427278 L11.5251885,266.354086 C11.5252873,264.650757 11.5242009,262.947429 11.5259786,261.244101 C11.5264724,260.756025 11.7617207,260.497667 12.2125639,260.497272 C14.7387672,260.495099 17.2649705,260.495099 19.7911738,260.497371 C20.203599,260.497766 20.4483284,260.743384 20.4642289,261.154427 C20.4676855,261.244793 20.4655128,261.335455 20.4655128,261.42592 L20.4655128,270.411674 L20.4655128,270.72603 L25.6204331,270.72603 L25.6204331,270.390539 C25.6204331,265.642612 25.6202356,260.894686 25.6206306,256.146759 C25.6206306,255.59271 25.8433363,255.37119 26.3991622,255.370795 C27.4442494,255.370005 28.4892377,255.370498 29.5343248,255.370498 L29.8054233,255.370498 C25.1821325,250.747208 20.5924204,246.157496 16.0341143,241.599189 L16.0341143,241.599189 Z M26.868375,256.632859 L26.868375,256.994917 C26.868375,261.718943 26.868375,266.44297 26.8682762,271.166997 C26.8682762,271.795807 26.6678905,271.999255 26.0484625,271.999255 C19.3492191,271.999353 12.6499756,271.999353 5.95073218,271.999255 C5.32715629,271.999255 5.12904206,271.799363 5.12904206,271.169664 C5.1289433,266.437341 5.1289433,261.705117 5.1289433,256.972893 L5.1289433,256.632859 L4.80984706,256.632859 C3.44358972,256.632859 2.07743115,256.632563 0.711272571,256.632859 C0.415088838,256.632958 0.176778953,256.529259 0.0551056093,256.244236 C-0.0672590604,255.957829 0.0234033825,255.714877 0.23583793,255.506097 C0.253516119,255.488814 0.270799264,255.471234 0.288279931,255.453754 C5.345032,250.396212 10.4017841,245.33867 15.4589312,240.281522 C15.8374815,239.903071 16.1575653,239.906528 16.5409549,240.289818 C21.6163727,245.363557 26.6913955,250.437691 31.7675047,255.510838 C31.9720384,255.715174 32.0615157,255.9442 31.954459,256.225175 C31.8525378,256.492817 31.6288445,256.631477 31.2866383,256.631971 C29.9203809,256.633946 28.5542223,256.632859 27.1880638,256.632859 L26.868375,256.632859 L26.868375,256.632859 Z" id="Fill-1"></path>
                </g>
            </g>
        </g>
    </g>
</svg>