<?xml version="1.0" encoding="UTF-8" standalone="no"?>
<svg width="34px" height="32px" viewBox="0 0 34 32" version="1.1" xmlns="http://www.w3.org/2000/svg" xmlns:xlink="http://www.w3.org/1999/xlink">
    <!-- Generator: Sketch 3.8.3 (29802) - http://www.bohemiancoding.com/sketch -->
    <title>Group 2</title>
    <desc>Created with Sketch.</desc>
    <defs></defs>
    <g id="homepage" stroke="none" stroke-width="1" fill="none" fill-rule="evenodd">
        <g id="desktop-home" transform="translate(-937.000000, -510.000000)" fill="#FFFFFF">
            <g id="Group-6" transform="translate(384.000000, 496.000000)">
                <g id="Group-4" transform="translate(540.000000, 0.000000)">
                    <g id="Group-2" transform="translate(13.000000, 14.000000)">
                        <path d="M12.1904762,3.04761905 C17.2327619,3.04761905 21.3333333,7.14819048 21.3333333,12.1904762 C21.3333333,17.2327619 17.2327619,21.3333333 12.1904762,21.3333333 C7.14819048,21.3333333 3.04761905,17.2327619 3.04761905,12.1904762 C3.04761905,7.14819048 7.14819048,3.04761905 12.1904762,3.04761905 L12.1904762,3.04761905 Z M12.1904762,0 C5.45828571,0 0,5.45828571 0,12.1904762 C0,18.9211429 5.45828571,24.3809524 12.1904762,24.3809524 C18.9226667,24.3809524 24.3809524,18.9211429 24.3809524,12.1904762 C24.3809524,5.45828571 18.9226667,0 12.1904762,0 L12.1904762,0 L12.1904762,0 Z" id="Shape"></path>
                        <rect id="Rectangle-path" transform="translate(27.259505, 25.735695) rotate(-45.000000) translate(-27.259505, -25.735695) " x="24.2119149" y="20.4024131" width="6.4654618" height="10.7747538"></rect>
                    </g>
                </g>
            </g>
        </g>
    </g>
</svg>