<?xml version="1.0" encoding="UTF-8" standalone="no"?>
<svg width="30px" height="30px" viewBox="0 0 30 30" version="1.1" xmlns="http://www.w3.org/2000/svg" xmlns:xlink="http://www.w3.org/1999/xlink">
    <!-- Generator: Sketch 3.8.3 (29802) - http://www.bohemiancoding.com/sketch -->
    <title>Page 1</title>
    <desc>Created with Sketch.</desc>
    <defs></defs>
    <g id="homepage" stroke="none" stroke-width="1" fill="none" fill-rule="evenodd">
        <g id="desktop-top-posts" transform="translate(-1310.000000, -107.000000)" fill="#F96161">
            <g id="Page-1" transform="translate(1310.000000, 107.000000)">
                <path d="M22.6839436,10.376578 C22.63427,9.91731214 22.6057834,9.45464162 22.5317181,8.99940751 C21.8655757,4.90561561 17.8966736,2.02548266 13.8197893,2.6698526 C9.51162908,3.35077746 6.63625816,7.41016474 7.37254896,11.7369942 C7.6611543,13.4326763 8.28910682,14.9868873 9.1718368,16.4447832 C10.6676528,18.9153757 12.6306499,20.9665723 14.8344481,22.7998728 C14.9410059,22.8884827 15.0084837,22.8676965 15.0991958,22.7867919 C15.6374154,22.3064711 16.1934392,21.8455029 16.7163472,21.3489653 C18.5122522,19.6437861 20.0916588,17.7637168 21.2488398,15.5518757 C22.0957834,13.9327081 22.6288398,12.225737 22.6839436,10.376578 M25.2593145,10.3416358 C25.205457,12.725052 24.5133205,14.9148526 23.4002938,16.984685 C22.0581276,19.4805434 20.2473561,21.6008179 18.1867033,23.5169046 C17.221273,24.4145607 16.2021632,25.245289 15.1137062,25.9883035 C15.0283353,26.0466301 14.9638843,26.102448 14.8442404,26.0179595 C11.5672077,23.7047861 8.79866172,20.9065434 6.76124332,17.4165347 C5.84237092,15.8424335 5.19332047,14.1613555 4.87685163,12.3558295 C3.81162908,6.27723121 7.76415134,1.26410116 12.9364362,0.206248555 C18.4999674,-0.931791908 23.9593442,2.75613295 25.0243887,8.39105491 C25.145724,9.03300578 25.1830237,9.69099422 25.2593145,10.3416358" id="Fill-1"></path>
                <path d="M25.6055786,27.3706535 C25.5011573,27.175246 25.4115134,27.0051939 25.319911,26.8363066 C24.6494065,25.5992633 23.9732938,24.3652662 23.3132938,23.1226679 C23.2099407,22.9279772 23.095638,22.8680379 22.8841246,22.8729656 C22.2540356,22.8876592 21.6234125,22.8786101 20.9929674,22.8778038 C20.9218398,22.8777142 20.8506231,22.8712633 20.7534125,22.8664251 C20.7989911,22.794928 20.8266766,22.7450234 20.8603264,22.6997777 C21.42,21.9469974 21.9822552,21.1961882 22.538546,20.4408991 C22.6167062,20.3347286 22.6975371,20.2896621 22.8316914,20.2915436 C23.3952819,20.2995176 23.9591395,20.2895725 24.5226409,20.3008616 C24.604451,20.3024743 24.7229377,20.3625032 24.7602374,20.430954 C26.4726409,23.5757517 28.1780119,26.7245812 29.8838279,29.8730523 C29.8940653,29.8919569 29.9000297,29.9132806 29.9156083,29.9528818 L0,29.9528818 C0.0386350148,29.8754714 0.0715727003,29.8040639 0.108961424,29.735165 C1.77979228,26.6523673 3.45222552,23.570376 5.11869436,20.4851592 C5.19667656,20.3407315 5.27821958,20.2872431 5.4420178,20.2906477 C5.99804154,20.3019367 6.55451039,20.2903789 7.11062315,20.2999656 C7.19189911,20.3013095 7.30086053,20.3477199 7.34848665,20.4105263 C7.93771513,21.1874974 8.51804154,21.9713673 9.09997033,22.7538934 C9.12035608,22.7813095 9.13335312,22.814191 9.16807122,22.8782517 L8.39109792,22.8782517 C7.9015727,22.8782517 7.41186944,22.8721592 6.9227003,22.8842546 C6.83928783,22.8863153 6.71884273,22.9443731 6.68109792,23.0130928 C5.90376855,24.4292373 5.13596439,25.8505783 4.36673591,27.271113 C4.35320475,27.2960205 4.34439169,27.3235263 4.32462908,27.3706535 L25.6055786,27.3706535 Z" id="Fill-4"></path>
                <path d="M14.9462582,11.6179668 C15.6543294,11.6241488 16.2414214,11.0421373 16.244181,10.3312876 C16.2469407,9.63172688 15.674092,9.04855058 14.9737656,9.03797832 C14.2708576,9.02731647 13.6776231,9.61640607 13.6767329,10.3259118 C13.6758427,11.0279812 14.2495816,11.6119639 14.9462582,11.6179668 M14.9603234,14.2007327 C12.8389585,14.2006431 11.1158724,12.4619552 11.1176528,10.3233136 C11.1195223,8.18377601 12.8419852,6.4577211 14.9710059,6.46202168 C17.088454,6.46623266 18.798454,8.18995809 18.8011246,10.3228656 C18.8037953,12.4624032 17.0820445,14.2007327 14.9603234,14.2007327" id="Fill-9"></path>
            </g>
        </g>
    </g>
</svg>