<?xml version="1.0" encoding="UTF-8" standalone="no"?>
<svg width="44px" height="44px" viewBox="0 0 44 44" version="1.1" xmlns="http://www.w3.org/2000/svg" xmlns:xlink="http://www.w3.org/1999/xlink">
    <!-- Generator: Sketch 3.8.2 (29753) - http://www.bohemiancoding.com/sketch -->
    <title>navigator</title>
    <desc>Created with Sketch.</desc>
    <defs></defs>
    <g id="homepage" stroke="none" stroke-width="1" fill="none" fill-rule="evenodd">
        <g id="HOMEPAGE" transform="translate(-603.000000, -754.000000)" fill="#FFFFFF">
            <g id="Group-4" transform="translate(581.000000, 732.000000)">
                <g id="navigator" transform="translate(22.000000, 22.000000)">
                    <path d="M3.61664158,20.0265904 L9.44868753,20.0265904 L9.44868753,23.5380323 L3.6325867,23.5380323 C4.20431564,31.808738 11.3081052,39.2512723 19.9985542,39.9215758 L19.9985542,34.081794 L23.502976,34.081794 L23.502976,39.9242372 C32.399262,39.2032466 39.3336951,31.5776823 39.849737,23.5233948 L34.037864,23.5233948 L34.037864,20.0118319 L39.8537232,20.0118319 C39.2813903,11.7229804 32.1564614,4.29339011 23.4873933,3.62889325 L23.4873933,9.46758637 L19.9824883,9.46758637 L19.9824883,3.62550604 C11.530008,4.30427756 4.33175575,11.3933329 3.61664158,20.0265904 M43.4864307,21.7983401 C43.4692777,33.8063417 33.7028958,43.5657236 21.7194185,43.5496344 C9.73026373,43.5335452 -0.0158243169,33.7519045 -9.38181824e-14,21.7512822 C0.0159451132,9.73311898 9.80455346,-0.0352148258 21.7964865,0.000108874418 C33.776944,0.0353116031 43.5035838,9.81041982 43.4864307,21.7983401" id="Fill-1"></path>
                    <ellipse id="Oval-11" cx="21.7433362" cy="21.7748837" rx="5.43583404" ry="5.44372093"></ellipse>
                </g>
            </g>
        </g>
    </g>
</svg>