<?xml version="1.0" encoding="UTF-8" standalone="no"?>
<svg width="27px" height="33px" viewBox="0 0 27 33" version="1.1" xmlns="http://www.w3.org/2000/svg" xmlns:xlink="http://www.w3.org/1999/xlink">
    <!-- Generator: Sketch 3.8.3 (29802) - http://www.bohemiancoding.com/sketch -->
    <title>Shape</title>
    <desc>Created with Sketch.</desc>
    <defs></defs>
    <g id="homepage" stroke="none" stroke-width="1" fill="none" fill-rule="evenodd">
        <g id="desktop-details" transform="translate(-964.000000, -170.000000)" fill="#F96161">
            <g id="Group-8" transform="translate(961.000000, 170.000000)">
                <g id="Group-5">
                    <path d="M25.3461818,4.14211067 C22.9825455,1.82792885 19.7112727,0.39229249 16.0909091,0.39229249 C12.4705455,0.39229249 9.19927273,1.82792885 6.83563636,4.14211067 C4.46909091,6.4533834 3,9.6533834 3,13.1922925 C3,16.9319289 4.46909091,20.3253834 6.83563636,22.7792016 L16.0909091,32.3922925 L25.3461818,22.7792016 C27.7127273,20.3253834 29.1818182,16.9319289 29.1818182,13.1922925 C29.1818182,9.6533834 27.7127273,6.4533834 25.3461818,4.14211067 L25.3461818,4.14211067 Z M16.0909091,17.8468379 C13.6749091,17.8468379 11.7272727,15.897747 11.7272727,13.481747 C11.7272727,11.0686561 13.6749091,9.11956522 16.0909091,9.11956522 C18.5069091,9.11956522 20.4545455,11.0686561 20.4545455,13.481747 C20.4545455,15.897747 18.5069091,17.8468379 16.0909091,17.8468379 L16.0909091,17.8468379 Z" id="Shape"></path>
                </g>
            </g>
        </g>
    </g>
</svg>