<?xml version="1.0" encoding="UTF-8" standalone="no"?>
<svg width="32px" height="19px" viewBox="0 0 32 19" version="1.1" xmlns="http://www.w3.org/2000/svg" xmlns:xlink="http://www.w3.org/1999/xlink">
    <!-- Generator: Sketch 3.8.3 (29802) - http://www.bohemiancoding.com/sketch -->
    <title>eye</title>
    <desc>Created with Sketch.</desc>
    <defs></defs>
    <g id="homepage" stroke="none" stroke-width="1" fill="none" fill-rule="evenodd">
        <g id="desktop-details" transform="translate(-961.000000, -366.000000)" fill="#F96161">
            <g id="Group-8" transform="translate(961.000000, 170.000000)">
                <g id="Group-5">
                    <g id="eye" transform="translate(0.000000, 196.000000)">
                        <path d="M16,3.06086957 C12.4656,3.06086957 9.6,5.79983768 9.6,9.1826087 C9.6,12.5653797 12.4656,15.3043478 16,15.3043478 C19.5365333,15.3043478 22.4,12.5653797 22.4,9.1826087 C22.4,5.79983768 19.5365333,3.06086957 16,3.06086957 L16,3.06086957 Z M16,11.2231884 C14.8208,11.2231884 13.8666667,10.310029 13.8666667,9.1826087 C13.8666667,8.05518841 14.8208,7.14202899 16,7.14202899 C17.1792,7.14202899 18.1333333,8.05518841 18.1333333,9.1826087 C18.1333333,10.310029 17.1792,11.2231884 16,11.2231884 L16,11.2231884 Z" id="Shape"></path>
                        <path d="M16,0 C8.8208,0 3.35626667,3.69855072 0,9.1826087 C3.35626667,14.6666667 8.8208,18.3652174 16,18.3652174 C23.1792,18.3652174 28.6437333,14.6666667 32,9.1826087 C28.6437333,3.69855072 23.1792,0 16,0 L16,0 Z M1.70693333,9.1826087 C5.03323333,4.07749275 10.0877833,1.27536232 16,1.27536232 C21.9122167,1.27536232 26.9667667,4.07749275 30.2930667,9.1826087 C26.9667667,14.2877246 21.9122167,17.0898551 16,17.0898551 C10.0877833,17.0898551 5.03323333,14.2877246 1.70693333,9.1826087 Z" id="Shape"></path>
                    </g>
                </g>
            </g>
        </g>
    </g>
</svg>